<?xml version="1.0" encoding="UTF-8"?>
<svg id="Layer_1" data-name="Layer 1" xmlns="http://www.w3.org/2000/svg" viewBox="0 0 23.51 23.52">
  <defs>
    <style>
      .cls-1 {
        fill: #f16522;
      }
    </style>
  </defs>
  <path class="cls-1" d="M9.64,16.77c-2.53.69-5.12.18-7.17-1.48-1.18-.96-2.06-2.21-2.4-3.71-.19-.83-.01-1.65.57-2.27-1.23,2.28,1.56,4.38,1.56,4.38,0,0,1.71,1.39,5,1.39,2.05,0,3.3-.47,3.95-.83,0,0,0,0,0,0,1.13-.27,1.89-.74,2-.71.29.08-.62,2.44-3.51,3.22Z"/>
  <path class="cls-1" d="M11.15,14.26c-.65.36-1.89.83-3.95.83-3.29,0-5-1.39-5-1.39,0,0-2.79-2.1-1.56-4.38.44-.47,1.04-.61,1.72-.47,1.19.25,1.36,1.71,1.97,2.59.71,1.01,1.67,1.81,2.77,2.37,1.53.77,2.95.71,4.04.46Z"/>
  <path class="cls-1" d="M6.5,9.82c-.77-2.51-.34-5.12,1.25-7.21.92-1.21,2.15-2.12,3.63-2.52.82-.22,1.65-.06,2.28.5-2.32-1.16-4.33,1.7-4.33,1.7,0,0-1.34,1.75-1.24,5.04.07,2.05.58,3.28.96,3.92,0,0,0,0,0,0,.3,1.12.8,1.86.78,1.97-.07.29-2.46-.54-3.33-3.4Z"/>
  <path class="cls-1" d="M9.05,11.25c-.38-.63-.89-1.87-.96-3.92-.1-3.29,1.24-5.04,1.24-5.04,0,0,2.01-2.85,4.33-1.7.48.42.64,1.02.53,1.71-.21,1.19-1.67,1.41-2.53,2.06-.99.74-1.76,1.73-2.28,2.85-.72,1.55-.62,2.97-.33,4.05Z"/>
  <path class="cls-1" d="M13.42,6.63c2.46-.89,5.09-.59,7.26.89,1.26.86,2.23,2.04,2.69,3.5.26.81.14,1.64-.38,2.31,1.04-2.38-1.91-4.24-1.91-4.24,0,0-1.82-1.25-5.1-.98-2.05.17-3.25.74-3.87,1.15,0,0,0,0,0,0-1.11.36-1.82.89-1.93.87-.3-.06.42-2.48,3.24-3.5Z"/>
  <path class="cls-1" d="M12.12,9.26c.62-.41,1.82-.98,3.87-1.15,3.28-.27,5.1.98,5.1.98,0,0,2.95,1.87,1.91,4.24-.4.5-.99.69-1.68.61-1.2-.15-1.49-1.59-2.18-2.42-.79-.95-1.81-1.67-2.96-2.14-1.58-.64-3-.47-4.06-.13Z"/>
  <path class="cls-1" d="M16.95,13.95c.65,2.54.11,5.13-1.57,7.15-.97,1.17-2.24,2.03-3.74,2.35-.83.18-1.65-.01-2.26-.6,2.27,1.26,4.4-1.5,4.4-1.5,0,0,1.42-1.69,1.46-4.98.03-2.05-.43-3.31-.78-3.96,0,0,0,0,0,0-.25-1.13-.72-1.9-.69-2.01.08-.29,2.43.65,3.18,3.55Z"/>
  <path class="cls-1" d="M14.46,12.41c.35.65.81,1.9.78,3.96-.04,3.29-1.46,4.98-1.46,4.98,0,0-2.14,2.76-4.4,1.5-.46-.45-.6-1.05-.45-1.73.26-1.18,1.73-1.33,2.62-1.94,1.02-.7,1.83-1.65,2.4-2.74.79-1.52.75-2.94.51-4.03Z"/>
</svg>